<svg width="20" height="20" viewBox="0 0 20 20" fill="none" xmlns="http://www.w3.org/2000/svg">
<path d="M18.585 7.46798C19.245 7.46798 19.785 6.92998 19.785 6.26798C19.785 5.60598 19.245 5.06798 18.585 5.06798H15.365L15.675 1.52098C15.702 1.20298 15.605 0.890982 15.398 0.645982C15.192 0.400982 14.903 0.249982 14.576 0.220982C13.926 0.185982 13.341 0.652982 13.283 1.31398L12.957 5.06798H7.9L8.208 1.52298C8.268 0.864982 7.778 0.280982 7.111 0.220982C6.446 0.170982 5.876 0.650982 5.818 1.31298L5.493 5.06698H2.163C1.5 5.06698 0.963003 5.60498 0.963003 6.26698C0.963003 6.92898 1.501 7.46698 2.163 7.46698H5.285L4.845 12.531H1.416C0.754003 12.531 0.216003 13.071 0.216003 13.731C0.216003 14.391 0.754003 14.933 1.416 14.933H4.636L4.326 18.481C4.269 19.138 4.758 19.721 5.416 19.781L5.522 19.786C6.148 19.786 6.662 19.314 6.717 18.688L7.044 14.935H12.1L11.792 18.479C11.732 19.137 12.222 19.721 12.882 19.781L12.988 19.786C13.605 19.786 14.13 19.304 14.183 18.688L14.508 14.935H17.838C18.498 14.935 19.038 14.395 19.038 13.735C19.038 13.075 18.498 12.533 17.838 12.533H14.716L15.156 7.46898H18.586L18.585 7.46798ZM12.747 7.46798L12.307 12.531H7.253L7.693 7.46898H12.748L12.747 7.46798Z" fill="white"/>
</svg>
