<svg width="20" height="22" viewBox="0 0 20 22" fill="none" xmlns="http://www.w3.org/2000/svg">
<path d="M19.6978 15.468C19.6778 15.452 17.5578 13.828 17.5948 9.43801C17.6148 6.90501 16.7828 4.65601 15.2478 3.10401C13.8728 1.71101 12.0108 0.940007 10.0058 0.932007H9.99277C7.98877 0.940007 6.12677 1.71201 4.75077 3.10401C3.21677 4.65701 2.38377 6.90601 2.40477 9.43701C2.44177 13.769 0.384768 15.404 0.302768 15.467C0.0427683 15.661 -0.0632318 15.997 0.0377682 16.305C0.138768 16.613 0.427768 16.82 0.750768 16.82H5.24477C5.34477 19.364 7.43277 21.407 10.0008 21.407C12.5688 21.407 14.6558 19.364 14.7568 16.82H19.2508C19.5748 16.82 19.8608 16.612 19.9628 16.305C20.0648 15.998 19.9578 15.661 19.6978 15.468ZM10.0008 19.408C8.53477 19.408 7.34377 18.261 7.24477 16.82H12.7568C12.6568 18.26 11.4668 19.407 10.0008 19.407V19.408Z" fill="white"/>
</svg>
