<svg width="20" height="21" viewBox="0 0 20 21" fill="none" xmlns="http://www.w3.org/2000/svg">
<path d="M19.6978 15.468C19.6778 15.452 17.5578 13.828 17.5948 9.43799C17.6148 6.90599 16.7828 4.65599 15.2478 3.10299C13.8728 1.70999 12.0108 0.939993 10.0058 0.929993H9.99277C7.98877 0.939993 6.12677 1.70999 4.75077 3.10399C3.21677 4.65699 2.38277 6.90599 2.40477 9.43799C2.44177 13.768 0.384768 15.405 0.302768 15.468C0.0427683 15.661 -0.0632318 15.998 0.0377682 16.306C0.139768 16.614 0.427768 16.821 0.749768 16.821H5.66977C5.77177 19.131 7.66677 20.981 9.99977 20.981C12.3328 20.981 14.2258 19.131 14.3268 16.821H19.2488C19.5708 16.821 19.8588 16.615 19.9588 16.307C20.0618 16 19.9558 15.662 19.6958 15.469L19.6978 15.468ZM10.0008 19.478C8.49577 19.478 7.27077 18.301 7.17277 16.82H12.8288C12.7288 18.3 11.5058 19.48 10.0008 19.48V19.478ZM2.38077 15.32C3.12077 14.188 3.92877 12.292 3.90477 9.42399C3.88677 7.26399 4.54877 5.44199 5.81777 4.15699C6.91077 3.04999 8.39777 2.43699 10.0008 2.42999C11.6038 2.43799 13.0878 3.04999 14.1808 4.15799C15.4508 5.44299 16.1138 7.26399 16.0958 9.42499C16.0718 12.293 16.8808 14.19 17.6208 15.321H2.38077V15.32Z" fill="white"/>
</svg>
